<?xml version="1.0" encoding="UTF-8"?>
<svg width="440px" height="440px" viewBox="0 0 440 440" version="1.1" xmlns="http://www.w3.org/2000/svg" xmlns:xlink="http://www.w3.org/1999/xlink">
    <!-- Generator: Sketch 55.2 (78181) - https://sketchapp.com -->
    <title>dispatcher-logo</title>
    <desc>Created with Sketch.</desc>
    <g id="Page-1" stroke="none" stroke-width="1" fill="none" fill-rule="evenodd">
        <rect id="Rectangle" fill="#414141" x="40" y="40" width="360" height="360" rx="25"></rect>
        <g id="Group-2" transform="translate(70.000000, 0.000000)" fill="#CACACA">
            <rect id="Rectangle" x="0" y="0" width="20" height="40"></rect>
            <rect id="Rectangle" x="40" y="0" width="20" height="40"></rect>
            <rect id="Rectangle" x="80" y="0" width="20" height="40"></rect>
            <rect id="Rectangle" x="120" y="0" width="20" height="40"></rect>
            <rect id="Rectangle" x="160" y="0" width="20" height="40"></rect>
            <rect id="Rectangle" x="200" y="0" width="20" height="40"></rect>
            <rect id="Rectangle" x="240" y="0" width="20" height="40"></rect>
            <rect id="Rectangle" x="280" y="0" width="20" height="40"></rect>
        </g>
        <g id="Group-4" transform="translate(70.000000, 400.000000)" fill="#CACACA">
            <rect id="Rectangle" x="0" y="0" width="20" height="40"></rect>
            <rect id="Rectangle" x="40" y="0" width="20" height="40"></rect>
            <rect id="Rectangle" x="80" y="0" width="20" height="40"></rect>
            <rect id="Rectangle" x="120" y="0" width="20" height="40"></rect>
            <rect id="Rectangle" x="160" y="0" width="20" height="40"></rect>
            <rect id="Rectangle" x="200" y="0" width="20" height="40"></rect>
            <rect id="Rectangle" x="240" y="0" width="20" height="40"></rect>
            <rect id="Rectangle" x="280" y="0" width="20" height="40"></rect>
        </g>
        <g id="Group-3" transform="translate(0.000000, 70.000000)" fill="#CACACA">
            <rect id="Rectangle" transform="translate(20.000000, 10.000000) rotate(90.000000) translate(-20.000000, -10.000000) " x="10" y="-10" width="20" height="40"></rect>
            <rect id="Rectangle" transform="translate(20.000000, 50.000000) rotate(90.000000) translate(-20.000000, -50.000000) " x="10" y="30" width="20" height="40"></rect>
            <rect id="Rectangle" transform="translate(20.000000, 90.000000) rotate(90.000000) translate(-20.000000, -90.000000) " x="10" y="70" width="20" height="40"></rect>
            <rect id="Rectangle" transform="translate(20.000000, 130.000000) rotate(90.000000) translate(-20.000000, -130.000000) " x="10" y="110" width="20" height="40"></rect>
            <rect id="Rectangle" transform="translate(20.000000, 170.000000) rotate(90.000000) translate(-20.000000, -170.000000) " x="10" y="150" width="20" height="40"></rect>
            <rect id="Rectangle" transform="translate(20.000000, 210.000000) rotate(90.000000) translate(-20.000000, -210.000000) " x="10" y="190" width="20" height="40"></rect>
            <rect id="Rectangle" transform="translate(20.000000, 250.000000) rotate(90.000000) translate(-20.000000, -250.000000) " x="10" y="230" width="20" height="40"></rect>
            <rect id="Rectangle" transform="translate(20.000000, 290.000000) rotate(90.000000) translate(-20.000000, -290.000000) " x="10" y="270" width="20" height="40"></rect>
        </g>
        <g id="Group" transform="translate(400.000000, 70.000000)" fill="#CACACA">
            <rect id="Rectangle" transform="translate(20.000000, 10.000000) rotate(90.000000) translate(-20.000000, -10.000000) " x="10" y="-10" width="20" height="40"></rect>
            <rect id="Rectangle" transform="translate(20.000000, 50.000000) rotate(90.000000) translate(-20.000000, -50.000000) " x="10" y="30" width="20" height="40"></rect>
            <rect id="Rectangle" transform="translate(20.000000, 90.000000) rotate(90.000000) translate(-20.000000, -90.000000) " x="10" y="70" width="20" height="40"></rect>
            <rect id="Rectangle" transform="translate(20.000000, 130.000000) rotate(90.000000) translate(-20.000000, -130.000000) " x="10" y="110" width="20" height="40"></rect>
            <rect id="Rectangle" transform="translate(20.000000, 170.000000) rotate(90.000000) translate(-20.000000, -170.000000) " x="10" y="150" width="20" height="40"></rect>
            <rect id="Rectangle" transform="translate(20.000000, 210.000000) rotate(90.000000) translate(-20.000000, -210.000000) " x="10" y="190" width="20" height="40"></rect>
            <rect id="Rectangle" transform="translate(20.000000, 250.000000) rotate(90.000000) translate(-20.000000, -250.000000) " x="10" y="230" width="20" height="40"></rect>
            <rect id="Rectangle" transform="translate(20.000000, 290.000000) rotate(90.000000) translate(-20.000000, -290.000000) " x="10" y="270" width="20" height="40"></rect>
        </g>
        <rect id="Rectangle" stroke="#979797" fill="#D8D8D8" x="171.5" y="80.5" width="189" height="69" rx="34.5"></rect>
        <rect id="Rectangle" stroke="#979797" fill="#D8D8D8" x="171.5" y="180.5" width="189" height="69" rx="34.5"></rect>
        <rect id="Rectangle" stroke="#979797" fill="#D8D8D8" x="171.5" y="288.5" width="189" height="69" rx="34.5"></rect>
        <path d="M115,150 C134.329966,150 150,134.329966 150,115 C150,95.6700338 134.329966,80 115,80 C95.6700338,80 80,95.6700338 80,115 C80,124.664983 83.9175084,133.414983 90.2512627,139.748737 L115,115 L115,150 Z" id="Oval" stroke="#979797" fill="#D8D8D8" transform="translate(115.000000, 115.000000) scale(-1, 1) rotate(180.000000) translate(-115.000000, -115.000000) "></path>
        <path d="M115,250 C134.329966,250 150,234.329966 150,215 C150,195.670034 134.329966,180 115,180 C95.6700338,180 80,195.670034 80,215 C80,218.163654 80.8851923,222.629318 82.6555769,228.396992 L115,215 L115,250 Z" id="Oval" stroke="#979797" fill="#D8D8D8" transform="translate(115.000000, 215.000000) scale(-1, 1) rotate(180.000000) translate(-115.000000, -215.000000) "></path>
        <path d="M115,358 C134.329966,358 150,342.329966 150,323 C150,303.670034 134.329966,288 115,288 C95.6700338,288 80,303.670034 80,323 C80,323.460138 80.0421327,324.212318 80.126398,325.256538 L115,323 L115,358 Z" id="Oval" stroke="#979797" fill="#D8D8D8" transform="translate(115.000000, 323.000000) scale(-1, 1) rotate(180.000000) translate(-115.000000, -323.000000) "></path>
    </g>
</svg>