<?xml version="1.0" encoding="UTF-8" standalone="no"?>
<!-- Generator: Adobe Illustrator 19.0.0, SVG Export Plug-In . SVG Version: 6.00 Build 0)  -->

<svg
   xmlns:dc="http://purl.org/dc/elements/1.1/"
   xmlns:cc="http://creativecommons.org/ns#"
   xmlns:rdf="http://www.w3.org/1999/02/22-rdf-syntax-ns#"
   xmlns:svg="http://www.w3.org/2000/svg"
   xmlns="http://www.w3.org/2000/svg"
   xmlns:sodipodi="http://sodipodi.sourceforge.net/DTD/sodipodi-0.dtd"
   xmlns:inkscape="http://www.inkscape.org/namespaces/inkscape"
   version="1.1"
   id="Layer_1"
   x="0px"
   y="0px"
   viewBox="0 0 439.99999 439.99999"
   xml:space="preserve"
   sodipodi:docname="taskbuilder.svg"
   width="440"
   height="440"
   inkscape:version="0.92.4 (5da689c313, 2019-01-14)"
   inkscape:export-xdpi="96"
   inkscape:export-ydpi="96"><metadata
   id="metadata51"><rdf:RDF><cc:Work
       rdf:about=""><dc:format>image/svg+xml</dc:format><dc:type
         rdf:resource="http://purl.org/dc/dcmitype/StillImage" /><dc:title></dc:title></cc:Work></rdf:RDF></metadata><defs
   id="defs49" /><sodipodi:namedview
   pagecolor="#ffffff"
   bordercolor="#666666"
   borderopacity="1"
   objecttolerance="10"
   gridtolerance="10"
   guidetolerance="10"
   inkscape:pageopacity="0"
   inkscape:pageshadow="2"
   inkscape:window-width="1920"
   inkscape:window-height="1017"
   id="namedview47"
   showgrid="false"
   fit-margin-top="0"
   fit-margin-left="0"
   fit-margin-right="0"
   fit-margin-bottom="0"
   inkscape:zoom="1.3025705"
   inkscape:cx="406.25218"
   inkscape:cy="184.99656"
   inkscape:window-x="-8"
   inkscape:window-y="-8"
   inkscape:window-maximized="1"
   inkscape:current-layer="Layer_1" />







<g
   id="g16"
   transform="translate(-36.227507,-36.227513)">
</g>
<g
   id="g18"
   transform="translate(-36.227507,-36.227513)">
</g>
<g
   id="g20"
   transform="translate(-36.227507,-36.227513)">
</g>
<g
   id="g22"
   transform="translate(-36.227507,-36.227513)">
</g>
<g
   id="g24"
   transform="translate(-36.227507,-36.227513)">
</g>
<g
   id="g26"
   transform="translate(-36.227507,-36.227513)">
</g>
<g
   id="g28"
   transform="translate(-36.227507,-36.227513)">
</g>
<g
   id="g30"
   transform="translate(-36.227507,-36.227513)">
</g>
<g
   id="g32"
   transform="translate(-36.227507,-36.227513)">
</g>
<g
   id="g34"
   transform="translate(-36.227507,-36.227513)">
</g>
<g
   id="g36"
   transform="translate(-36.227507,-36.227513)">
</g>
<g
   id="g38"
   transform="translate(-36.227507,-36.227513)">
</g>
<g
   id="g40"
   transform="translate(-36.227507,-36.227513)">
</g>
<g
   id="g42"
   transform="translate(-36.227507,-36.227513)">
</g>
<g
   id="g44"
   transform="translate(-36.227507,-36.227513)">
</g>
<g
   id="g1052"
   transform="translate(-36.227507,-36.227513)"><rect
     style="fill:#414141;fill-rule:evenodd;stroke:none;stroke-width:1"
     id="Rectangle"
     x="76.227509"
     y="76.227516"
     width="360"
     height="360"
     rx="25" /><g
     style="fill:#cacaca;fill-rule:evenodd;stroke:none;stroke-width:1"
     id="Group-2"
     transform="translate(106.22751,36.227513)"><rect
       id="rect7"
       x="0"
       y="0"
       width="20"
       height="40" /><rect
       id="rect9"
       x="40"
       y="0"
       width="20"
       height="40" /><rect
       id="rect11"
       x="80"
       y="0"
       width="20"
       height="40" /><rect
       id="rect13"
       x="120"
       y="0"
       width="20"
       height="40" /><rect
       id="rect15"
       x="160"
       y="0"
       width="20"
       height="40" /><rect
       id="rect17"
       x="200"
       y="0"
       width="20"
       height="40" /><rect
       id="rect19"
       x="240"
       y="0"
       width="20"
       height="40" /><rect
       id="rect21"
       x="280"
       y="0"
       width="20"
       height="40" /></g><g
     style="fill:#cacaca;fill-rule:evenodd;stroke:none;stroke-width:1"
     id="Group-4"
     transform="translate(106.22751,436.22751)"><rect
       id="rect24"
       x="0"
       y="0"
       width="20"
       height="40" /><rect
       id="rect26"
       x="40"
       y="0"
       width="20"
       height="40" /><rect
       id="rect28"
       x="80"
       y="0"
       width="20"
       height="40" /><rect
       id="rect30"
       x="120"
       y="0"
       width="20"
       height="40" /><rect
       id="rect32"
       x="160"
       y="0"
       width="20"
       height="40" /><rect
       id="rect34"
       x="200"
       y="0"
       width="20"
       height="40" /><rect
       id="rect36"
       x="240"
       y="0"
       width="20"
       height="40" /><rect
       id="rect38"
       x="280"
       y="0"
       width="20"
       height="40" /></g><g
     style="fill:#cacaca;fill-rule:evenodd;stroke:none;stroke-width:1"
     id="Group-3"
     transform="translate(36.227507,106.22751)"><rect
       id="rect41"
       transform="rotate(90,20,10)"
       x="10"
       y="-10"
       width="20"
       height="40" /><rect
       id="rect43"
       transform="rotate(90,20,50)"
       x="10"
       y="30"
       width="20"
       height="40" /><rect
       id="rect45"
       transform="rotate(90,20,90)"
       x="10"
       y="70"
       width="20"
       height="40" /><rect
       id="rect47"
       transform="rotate(90,20,130)"
       x="10"
       y="110"
       width="20"
       height="40" /><rect
       id="rect49"
       transform="rotate(90,20,170)"
       x="10"
       y="150"
       width="20"
       height="40" /><rect
       id="rect51"
       transform="rotate(90,20,210)"
       x="10"
       y="190"
       width="20"
       height="40" /><rect
       id="rect53"
       transform="rotate(90,20,250)"
       x="10"
       y="230"
       width="20"
       height="40" /><rect
       id="rect55"
       transform="rotate(90,20,290)"
       x="10"
       y="270"
       width="20"
       height="40" /></g><g
     style="fill:#cacaca;fill-rule:evenodd;stroke:none;stroke-width:1"
     id="Group"
     transform="translate(436.22751,106.22751)"><rect
       id="rect58"
       transform="rotate(90,20,10)"
       x="10"
       y="-10"
       width="20"
       height="40" /><rect
       id="rect60"
       transform="rotate(90,20,50)"
       x="10"
       y="30"
       width="20"
       height="40" /><rect
       id="rect62"
       transform="rotate(90,20,90)"
       x="10"
       y="70"
       width="20"
       height="40" /><rect
       id="rect64"
       transform="rotate(90,20,130)"
       x="10"
       y="110"
       width="20"
       height="40" /><rect
       id="rect66"
       transform="rotate(90,20,170)"
       x="10"
       y="150"
       width="20"
       height="40" /><rect
       id="rect68"
       transform="rotate(90,20,210)"
       x="10"
       y="190"
       width="20"
       height="40" /><rect
       id="rect70"
       transform="rotate(90,20,250)"
       x="10"
       y="230"
       width="20"
       height="40" /><rect
       id="rect72"
       transform="rotate(90,20,290)"
       x="10"
       y="270"
       width="20"
       height="40" /></g><g
     style="fill:#ffffff"
     id="g6"
     transform="matrix(0.66391568,0,0,0.66372812,86.844114,86.890706)"><g
       style="fill:#ffffff"
       id="g4"><path
         style="fill:#ffffff"
         id="path2-5"
         d="M 482.059,385.817 C 471.42,378.33 459.142,374.308 446.74,373.652 399.996,343.042 369.376,320.067 351.499,302.19 l -54.915,-54.915 33.324,-37.302 c 6.316,3.565 13.099,5.914 19.884,6.883 5.12,0.853 8.533,0.853 11.947,0.853 6.827,0 8.533,0 15.36,5.973 -3.413,2.56 -5.12,6.827 -5.12,11.093 0,4.266 1.707,9.387 5.12,12.8 l 29.867,29.867 c 4.267,5.12 11.093,7.68 17.92,7.68 6.827,0 13.653,-2.56 17.92,-8.533 l 60.587,-60.587 c 5.12,-4.267 7.68,-11.093 7.68,-17.92 0,-6.827 -2.56,-12.8 -7.68,-17.92 l -29.867,-29.867 c -3.413,-3.413 -7.68,-5.12 -11.947,-5.12 -4.267,0 -8.533,2.56 -11.947,5.12 -6.827,-5.973 -6.827,-7.68 -6.827,-14.507 0,-3.413 0,-7.68 -1.707,-12.8 -1.707,-11.947 -7.68,-23.893 -17.067,-33.28 l -30.72,-30.72 C 375.391,41.068 366.858,32.535 343.818,22.295 294.325,-0.745 243.978,3.522 170.591,36.802 c -4.267,1.707 -5.973,5.12 -5.12,9.387 0.853,4.267 4.267,6.827 8.533,6.827 h 11.093 c 37.547,0 57.173,0 91.307,34.133 14.946,14.946 15.377,37.863 1.986,54.724 -1.805,0.272 -3.179,1.082 -4.546,2.449 L 235.938,186.63 207.284,157.976 C 175.79,126.482 153.638,96.685 136.589,63.506 135.694,46.717 128.957,31.009 116.831,18.883 102.325,4.377 81.845,-2.45 61.365,-0.743 c -2.56,0.853 -5.12,2.56 -5.973,4.267 -1.707,2.56 -1.707,5.973 0,8.533 L 79.285,54.724 C 74.165,65.817 62.218,72.644 50.272,71.791 L 25.525,30.83 c -0.853,-2.56 -4.267,-4.267 -6.827,-4.267 -2.56,-0.853 -5.12,0.853 -6.827,3.413 -20.48,30.72 -12.8,71.68 17.92,93.013 10.584,7.56 22.508,11.764 34.584,12.626 0.135,0.057 0.262,0.127 0.402,0.174 33.28,17.067 63.147,39.253 94.72,70.827 L 190.706,237.115 9.312,439.577 c -6.827,6.827 -10.24,16.213 -10.24,25.6 0,9.387 3.413,17.92 10.24,24.747 l 11.947,11.947 c 6.827,5.973 15.36,9.387 23.893,9.387 8.533,0 17.92,-3.413 24.747,-10.24 l 181.187,-202.813 52.626,52.626 c 17.903,17.903 40.917,49.435 71.594,95.444 1.1,16.423 7.821,31.757 19.713,43.649 12.8,12.8 29.867,19.627 47.787,19.627 2.56,0 5.12,0 6.827,0 2.56,0 5.12,-1.707 6.827,-4.267 1.707,-2.56 1.707,-5.973 0,-8.533 l -24.747,-41.813 c 5.973,-11.093 17.067,-17.92 29.867,-17.067 l 23.893,40.96 c 0.853,2.56 4.267,4.267 6.827,4.267 3.413,-0.853 5.973,-1.707 7.68,-4.267 20.479,-30.721 11.945,-71.681 -17.921,-93.014 z M 287.499,73.497 C 260.192,47.044 239.712,38.51 216.672,35.95 c 48.64,-15.36 84.48,-14.507 120.32,1.707 20.48,8.533 27.307,15.36 45.227,33.28 l 30.72,30.72 c 6.827,6.827 11.093,15.36 11.947,23.893 0.853,4.267 0.853,7.68 0.853,10.24 0,9.387 0.853,16.213 11.093,26.453 3.413,3.413 8.533,5.12 12.8,5.12 5.12,0 9.387,-1.707 11.947,-5.12 l 29.867,29.867 c 1.707,1.707 2.56,3.413 2.56,5.973 0,2.56 -0.853,4.267 -2.56,5.973 l -60.587,60.587 c -3.413,3.413 -8.533,3.413 -11.947,0 l -29.867,-29.867 c 3.413,-2.56 5.12,-6.827 4.267,-11.947 0,-4.267 -1.707,-9.387 -5.12,-12.8 -10.24,-10.24 -17.067,-11.093 -26.453,-11.093 -2.56,0 -5.973,0 -10.24,-0.853 -9.387,-0.853 -17.067,-5.12 -23.893,-11.947 l -36.693,-36.693 c 18.772,-23.039 17.066,-55.466 -3.414,-75.946 z m -267.947,-20.48 17.92,30.72 c 1.707,2.56 4.267,4.267 6.827,4.267 h 4.267 c 19.627,0.853 37.547,-9.387 46.08,-26.453 l 1.707,-4.267 c 1.707,-2.56 1.707,-5.12 0,-7.68 L 77.579,17.177 c 10.24,1.707 19.627,6.827 27.307,14.507 8.798,9.531 14.431,21.585 14.764,34.533 -0.165,0.657 -0.258,1.364 -0.258,2.161 0,3.952 -0.477,7.807 -1.36,11.523 -3.219,12.356 -10.938,23.129 -21.68,30.291 C 79.285,121.285 56.245,121.285 39.179,109.339 21.259,96.537 13.579,73.497 19.552,53.017 Z M 171.445,194.67 c -25.6,-26.453 -51.2,-46.933 -78.507,-63.147 4.267,-1.707 9.387,-4.267 13.653,-6.827 12.8,-8.533 21.333,-19.627 26.453,-33.28 16.213,27.307 36.693,52.907 62.293,78.507 l 29.31,29.31 -22.985,25.655 z M 57.952,488.217 c -6.827,6.827 -17.92,7.68 -24.747,0.853 L 21.258,477.977 c -3.413,-3.413 -5.12,-7.68 -5.12,-11.947 0,-5.12 1.707,-9.387 5.973,-13.653 l 4.833,-5.407 12.234,12.234 c 1.707,1.707 3.413,2.56 5.973,2.56 2.56,0 4.267,-0.853 5.973,-2.56 3.413,-3.413 3.413,-8.533 0,-11.947 L 38.22,434.353 49.497,421.736 63.071,435.31 c 1.707,1.707 3.413,2.56 5.973,2.56 2.56,0 4.267,-0.853 5.973,-2.56 3.413,-3.413 3.413,-8.533 0,-11.947 L 60.775,409.12 280.269,163.547 l 35.84,35.84 -35.215,39.399 c -1.006,0.426 -1.896,1.077 -2.782,1.964 l -34.133,38.4 c -0.975,0.975 -1.661,2.091 -2.079,3.264 z m 204.81,-203.083 23.353,-26.14 55.143,55.143 c 15.36,16.213 41.813,36.693 80.213,62.293 -5.12,1.707 -10.24,4.267 -15.36,7.68 -10.587,6.617 -18.085,15.804 -23.31,25.96 -0.077,0.145 -0.148,0.293 -0.224,0.439 -0.31,0.611 -0.612,1.225 -0.906,1.843 -0.421,0.875 -0.821,1.76 -1.204,2.654 -0.262,0.605 -0.523,1.21 -0.77,1.819 -0.035,0.088 -0.069,0.176 -0.104,0.264 -0.269,0.668 -0.536,1.336 -0.788,2.008 -4.847,-7.109 -9.51,-13.818 -13.995,-20.138 l 11.435,-11.435 c 3.413,-3.413 3.413,-8.533 0,-11.947 -3.413,-3.413 -8.533,-3.413 -11.947,0 l -9.513,9.513 c -3.546,-4.812 -6.971,-9.351 -10.275,-13.618 l 7.842,-7.842 c 3.413,-3.413 3.413,-8.533 0,-11.947 -3.413,-3.413 -8.533,-3.413 -11.947,0 l -6.514,6.514 c -6.272,-7.559 -12.057,-13.992 -17.379,-19.314 z m 228.683,170.656 -17.92,-30.72 c -1.707,-2.56 -4.267,-4.267 -6.827,-4.267 h -4.267 c -19.627,-1.707 -37.547,9.387 -46.08,26.453 l -1.707,4.267 c -1.707,2.56 -1.707,5.12 0,7.68 l 18.773,32.427 c -10.24,-1.707 -19.627,-6.827 -27.307,-14.507 -8.631,-9.351 -14.21,-21.13 -14.735,-33.797 0.146,-0.624 0.228,-1.294 0.228,-2.043 0,-10.81 3.432,-20.931 9.413,-29.504 3.675,-5.114 8.271,-9.591 13.627,-13.162 8.533,-5.973 17.92,-8.533 28.16,-8.533 10.24,0 20.48,3.413 29.013,9.387 17.923,12.799 25.603,35.839 19.629,56.319 z"
         inkscape:connector-curvature="0" /></g></g></g></svg>